<mxfile host="app.diagrams.net" agent="Mozilla/5.0 (Windows NT 10.0; Win64; x64) AppleWebKit/537.36 (KHTML, like Gecko) Chrome/119.0.0.0 Safari/537.36" version="24.7.4">
  <diagram name="第 1 页" id="ATw3hDvYNbNPjMNtmApz">
    <mxGraphModel dx="1434" dy="746" grid="1" gridSize="10" guides="1" tooltips="1" connect="1" arrows="1" fold="1" page="1" pageScale="1" pageWidth="827" pageHeight="1169" math="0" shadow="0">
      <root>
        <mxCell id="0" />
        <mxCell id="1" parent="0" />
        <mxCell id="5A-mQ7iHTfJwWFWPuH88-11" value="MosaicVM处理触摸事件" style="swimlane;whiteSpace=wrap;html=1;" vertex="1" parent="1">
          <mxGeometry x="300" y="120" width="310" height="440" as="geometry" />
        </mxCell>
        <mxCell id="5A-mQ7iHTfJwWFWPuH88-12" value="" style="edgeStyle=orthogonalEdgeStyle;rounded=0;orthogonalLoop=1;jettySize=auto;html=1;" edge="1" parent="5A-mQ7iHTfJwWFWPuH88-11" source="5A-mQ7iHTfJwWFWPuH88-13" target="5A-mQ7iHTfJwWFWPuH88-15">
          <mxGeometry relative="1" as="geometry" />
        </mxCell>
        <mxCell id="5A-mQ7iHTfJwWFWPuH88-13" value="begin（记录点位，不执行操作）" style="whiteSpace=wrap;html=1;" vertex="1" parent="5A-mQ7iHTfJwWFWPuH88-11">
          <mxGeometry x="90" y="70" width="120" height="60" as="geometry" />
        </mxCell>
        <mxCell id="5A-mQ7iHTfJwWFWPuH88-14" value="" style="edgeStyle=orthogonalEdgeStyle;rounded=0;orthogonalLoop=1;jettySize=auto;html=1;" edge="1" parent="5A-mQ7iHTfJwWFWPuH88-11" source="5A-mQ7iHTfJwWFWPuH88-15" target="5A-mQ7iHTfJwWFWPuH88-17">
          <mxGeometry relative="1" as="geometry" />
        </mxCell>
        <mxCell id="5A-mQ7iHTfJwWFWPuH88-15" value="first move" style="whiteSpace=wrap;html=1;" vertex="1" parent="5A-mQ7iHTfJwWFWPuH88-11">
          <mxGeometry x="90" y="164" width="120" height="60" as="geometry" />
        </mxCell>
        <mxCell id="5A-mQ7iHTfJwWFWPuH88-16" value="" style="edgeStyle=orthogonalEdgeStyle;rounded=0;orthogonalLoop=1;jettySize=auto;html=1;" edge="1" parent="5A-mQ7iHTfJwWFWPuH88-11" source="5A-mQ7iHTfJwWFWPuH88-17" target="5A-mQ7iHTfJwWFWPuH88-18">
          <mxGeometry relative="1" as="geometry" />
        </mxCell>
        <mxCell id="5A-mQ7iHTfJwWFWPuH88-17" value="rest move" style="whiteSpace=wrap;html=1;" vertex="1" parent="5A-mQ7iHTfJwWFWPuH88-11">
          <mxGeometry x="90" y="260" width="120" height="60" as="geometry" />
        </mxCell>
        <mxCell id="5A-mQ7iHTfJwWFWPuH88-18" value="end" style="whiteSpace=wrap;html=1;" vertex="1" parent="5A-mQ7iHTfJwWFWPuH88-11">
          <mxGeometry x="90" y="360" width="120" height="60" as="geometry" />
        </mxCell>
        <mxCell id="5A-mQ7iHTfJwWFWPuH88-19" value="MosaicEffector处理&lt;span style=&quot;background-color: initial;&quot;&gt;传过来的position&lt;/span&gt;" style="swimlane;whiteSpace=wrap;html=1;" vertex="1" parent="1">
          <mxGeometry x="660" y="120" width="790" height="660" as="geometry" />
        </mxCell>
        <mxCell id="5A-mQ7iHTfJwWFWPuH88-20" value="startBrush（position）" style="rounded=0;whiteSpace=wrap;html=1;" vertex="1" parent="5A-mQ7iHTfJwWFWPuH88-19">
          <mxGeometry x="40" y="70" width="120" height="60" as="geometry" />
        </mxCell>
        <mxCell id="5A-mQ7iHTfJwWFWPuH88-21" value="moveBrush（position）" style="rounded=0;whiteSpace=wrap;html=1;" vertex="1" parent="5A-mQ7iHTfJwWFWPuH88-19">
          <mxGeometry x="40" y="164" width="120" height="60" as="geometry" />
        </mxCell>
        <mxCell id="5A-mQ7iHTfJwWFWPuH88-30" style="edgeStyle=orthogonalEdgeStyle;rounded=0;orthogonalLoop=1;jettySize=auto;html=1;exitX=1;exitY=0.5;exitDx=0;exitDy=0;entryX=0;entryY=0.5;entryDx=0;entryDy=0;" edge="1" parent="5A-mQ7iHTfJwWFWPuH88-19" source="5A-mQ7iHTfJwWFWPuH88-22" target="5A-mQ7iHTfJwWFWPuH88-24">
          <mxGeometry relative="1" as="geometry" />
        </mxCell>
        <mxCell id="5A-mQ7iHTfJwWFWPuH88-22" value="finishBrush" style="rounded=0;whiteSpace=wrap;html=1;" vertex="1" parent="5A-mQ7iHTfJwWFWPuH88-19">
          <mxGeometry x="40" y="465" width="120" height="60" as="geometry" />
        </mxCell>
        <mxCell id="5A-mQ7iHTfJwWFWPuH88-45" value="" style="edgeStyle=orthogonalEdgeStyle;rounded=0;orthogonalLoop=1;jettySize=auto;html=1;" edge="1" parent="5A-mQ7iHTfJwWFWPuH88-19" source="5A-mQ7iHTfJwWFWPuH88-23" target="5A-mQ7iHTfJwWFWPuH88-44">
          <mxGeometry relative="1" as="geometry" />
        </mxCell>
        <mxCell id="5A-mQ7iHTfJwWFWPuH88-47" value="Y" style="edgeLabel;html=1;align=center;verticalAlign=middle;resizable=0;points=[];" vertex="1" connectable="0" parent="5A-mQ7iHTfJwWFWPuH88-45">
          <mxGeometry x="-0.2" relative="1" as="geometry">
            <mxPoint as="offset" />
          </mxGeometry>
        </mxCell>
        <mxCell id="5A-mQ7iHTfJwWFWPuH88-23" value="isRenddering" style="rhombus;whiteSpace=wrap;html=1;" vertex="1" parent="5A-mQ7iHTfJwWFWPuH88-19">
          <mxGeometry x="40" y="250" width="120" height="80" as="geometry" />
        </mxCell>
        <mxCell id="5A-mQ7iHTfJwWFWPuH88-24" value="isRendering" style="rhombus;whiteSpace=wrap;html=1;" vertex="1" parent="5A-mQ7iHTfJwWFWPuH88-19">
          <mxGeometry x="200" y="455" width="120" height="80" as="geometry" />
        </mxCell>
        <mxCell id="5A-mQ7iHTfJwWFWPuH88-27" value="" style="endArrow=classic;html=1;rounded=0;exitX=0.5;exitY=1;exitDx=0;exitDy=0;entryX=0.5;entryY=0;entryDx=0;entryDy=0;" edge="1" parent="5A-mQ7iHTfJwWFWPuH88-19" source="5A-mQ7iHTfJwWFWPuH88-21" target="5A-mQ7iHTfJwWFWPuH88-23">
          <mxGeometry width="50" height="50" relative="1" as="geometry">
            <mxPoint x="-270" y="290" as="sourcePoint" />
            <mxPoint x="-220" y="240" as="targetPoint" />
          </mxGeometry>
        </mxCell>
        <mxCell id="5A-mQ7iHTfJwWFWPuH88-44" value="waitingPostion&lt;div&gt;.add(position&lt;span style=&quot;background-color: initial;&quot;&gt;)&lt;/span&gt;&lt;/div&gt;" style="whiteSpace=wrap;html=1;" vertex="1" parent="5A-mQ7iHTfJwWFWPuH88-19">
          <mxGeometry x="250" y="260" width="120" height="60" as="geometry" />
        </mxCell>
        <mxCell id="5A-mQ7iHTfJwWFWPuH88-51" value="异步执行onManualRendered" style="swimlane;whiteSpace=wrap;html=1;" vertex="1" parent="5A-mQ7iHTfJwWFWPuH88-19">
          <mxGeometry x="530" y="100" width="200" height="320" as="geometry" />
        </mxCell>
        <mxCell id="5A-mQ7iHTfJwWFWPuH88-26" value="isFinishing" style="rhombus;whiteSpace=wrap;html=1;" vertex="1" parent="5A-mQ7iHTfJwWFWPuH88-51">
          <mxGeometry x="30" y="200" width="140" height="80" as="geometry" />
        </mxCell>
        <mxCell id="5A-mQ7iHTfJwWFWPuH88-53" style="edgeStyle=orthogonalEdgeStyle;rounded=0;orthogonalLoop=1;jettySize=auto;html=1;exitX=0.5;exitY=1;exitDx=0;exitDy=0;entryX=0.5;entryY=0;entryDx=0;entryDy=0;" edge="1" parent="5A-mQ7iHTfJwWFWPuH88-51" source="5A-mQ7iHTfJwWFWPuH88-52" target="5A-mQ7iHTfJwWFWPuH88-26">
          <mxGeometry relative="1" as="geometry" />
        </mxCell>
        <mxCell id="5A-mQ7iHTfJwWFWPuH88-54" value="N" style="edgeLabel;html=1;align=center;verticalAlign=middle;resizable=0;points=[];" vertex="1" connectable="0" parent="5A-mQ7iHTfJwWFWPuH88-53">
          <mxGeometry x="-0.0667" y="-1" relative="1" as="geometry">
            <mxPoint as="offset" />
          </mxGeometry>
        </mxCell>
        <mxCell id="5A-mQ7iHTfJwWFWPuH88-52" value="waitingPosition!=null" style="rhombus;whiteSpace=wrap;html=1;" vertex="1" parent="5A-mQ7iHTfJwWFWPuH88-51">
          <mxGeometry x="25" y="54" width="150" height="80" as="geometry" />
        </mxCell>
        <mxCell id="5A-mQ7iHTfJwWFWPuH88-55" style="edgeStyle=orthogonalEdgeStyle;rounded=0;orthogonalLoop=1;jettySize=auto;html=1;exitX=0;exitY=0.5;exitDx=0;exitDy=0;entryX=1;entryY=0.5;entryDx=0;entryDy=0;" edge="1" parent="5A-mQ7iHTfJwWFWPuH88-19" source="5A-mQ7iHTfJwWFWPuH88-52" target="5A-mQ7iHTfJwWFWPuH88-21">
          <mxGeometry relative="1" as="geometry" />
        </mxCell>
        <mxCell id="5A-mQ7iHTfJwWFWPuH88-56" value="Y" style="edgeLabel;html=1;align=center;verticalAlign=middle;resizable=0;points=[];" vertex="1" connectable="0" parent="5A-mQ7iHTfJwWFWPuH88-55">
          <mxGeometry x="-0.591" relative="1" as="geometry">
            <mxPoint as="offset" />
          </mxGeometry>
        </mxCell>
        <mxCell id="5A-mQ7iHTfJwWFWPuH88-57" style="edgeStyle=orthogonalEdgeStyle;rounded=0;orthogonalLoop=1;jettySize=auto;html=1;exitX=0.5;exitY=1;exitDx=0;exitDy=0;" edge="1" parent="5A-mQ7iHTfJwWFWPuH88-19" source="5A-mQ7iHTfJwWFWPuH88-26" target="5A-mQ7iHTfJwWFWPuH88-22">
          <mxGeometry relative="1" as="geometry">
            <Array as="points">
              <mxPoint x="630" y="390" />
              <mxPoint x="100" y="390" />
            </Array>
          </mxGeometry>
        </mxCell>
        <mxCell id="5A-mQ7iHTfJwWFWPuH88-58" value="Y" style="edgeLabel;html=1;align=center;verticalAlign=middle;resizable=0;points=[];" vertex="1" connectable="0" parent="5A-mQ7iHTfJwWFWPuH88-57">
          <mxGeometry x="-0.4325" y="1" relative="1" as="geometry">
            <mxPoint x="1" as="offset" />
          </mxGeometry>
        </mxCell>
        <mxCell id="5A-mQ7iHTfJwWFWPuH88-64" value="isRendering= false" style="whiteSpace=wrap;html=1;" vertex="1" parent="5A-mQ7iHTfJwWFWPuH88-19">
          <mxGeometry x="560" y="465" width="120" height="60" as="geometry" />
        </mxCell>
        <mxCell id="5A-mQ7iHTfJwWFWPuH88-67" style="edgeStyle=orthogonalEdgeStyle;rounded=0;orthogonalLoop=1;jettySize=auto;html=1;exitX=1;exitY=0.5;exitDx=0;exitDy=0;entryX=0.46;entryY=0.003;entryDx=0;entryDy=0;entryPerimeter=0;" edge="1" parent="5A-mQ7iHTfJwWFWPuH88-19" source="5A-mQ7iHTfJwWFWPuH88-64" target="5A-mQ7iHTfJwWFWPuH88-51">
          <mxGeometry relative="1" as="geometry">
            <Array as="points">
              <mxPoint x="770" y="495" />
              <mxPoint x="770" y="80" />
              <mxPoint x="622" y="80" />
            </Array>
          </mxGeometry>
        </mxCell>
        <mxCell id="5A-mQ7iHTfJwWFWPuH88-34" value="isFinishing=true" style="whiteSpace=wrap;html=1;" vertex="1" parent="1">
          <mxGeometry x="860" y="700" width="120" height="60" as="geometry" />
        </mxCell>
        <mxCell id="5A-mQ7iHTfJwWFWPuH88-35" value="" style="edgeStyle=orthogonalEdgeStyle;rounded=0;orthogonalLoop=1;jettySize=auto;html=1;" edge="1" parent="1" source="5A-mQ7iHTfJwWFWPuH88-24" target="5A-mQ7iHTfJwWFWPuH88-34">
          <mxGeometry relative="1" as="geometry">
            <Array as="points">
              <mxPoint x="920" y="680" />
              <mxPoint x="920" y="680" />
            </Array>
          </mxGeometry>
        </mxCell>
        <mxCell id="5A-mQ7iHTfJwWFWPuH88-61" value="Y" style="edgeLabel;html=1;align=center;verticalAlign=middle;resizable=0;points=[];" vertex="1" connectable="0" parent="5A-mQ7iHTfJwWFWPuH88-35">
          <mxGeometry x="-0.0222" relative="1" as="geometry">
            <mxPoint as="offset" />
          </mxGeometry>
        </mxCell>
        <mxCell id="5A-mQ7iHTfJwWFWPuH88-65" style="edgeStyle=orthogonalEdgeStyle;rounded=0;orthogonalLoop=1;jettySize=auto;html=1;exitX=1;exitY=0.5;exitDx=0;exitDy=0;entryX=0;entryY=0.5;entryDx=0;entryDy=0;" edge="1" parent="1" source="5A-mQ7iHTfJwWFWPuH88-36" target="5A-mQ7iHTfJwWFWPuH88-64">
          <mxGeometry relative="1" as="geometry" />
        </mxCell>
        <mxCell id="5A-mQ7iHTfJwWFWPuH88-66" value="异步回调" style="edgeLabel;html=1;align=center;verticalAlign=middle;resizable=0;points=[];" vertex="1" connectable="0" parent="5A-mQ7iHTfJwWFWPuH88-65">
          <mxGeometry x="0.0864" y="1" relative="1" as="geometry">
            <mxPoint as="offset" />
          </mxGeometry>
        </mxCell>
        <mxCell id="5A-mQ7iHTfJwWFWPuH88-36" value="isRendering = true&lt;div&gt;emitEffect&lt;/div&gt;" style="whiteSpace=wrap;html=1;" vertex="1" parent="1">
          <mxGeometry x="1020" y="584" width="120" height="60" as="geometry" />
        </mxCell>
        <mxCell id="5A-mQ7iHTfJwWFWPuH88-37" value="" style="edgeStyle=orthogonalEdgeStyle;rounded=0;orthogonalLoop=1;jettySize=auto;html=1;" edge="1" parent="1" source="5A-mQ7iHTfJwWFWPuH88-24" target="5A-mQ7iHTfJwWFWPuH88-36">
          <mxGeometry relative="1" as="geometry" />
        </mxCell>
        <mxCell id="5A-mQ7iHTfJwWFWPuH88-62" value="N" style="edgeLabel;html=1;align=center;verticalAlign=middle;resizable=0;points=[];" vertex="1" connectable="0" parent="5A-mQ7iHTfJwWFWPuH88-37">
          <mxGeometry x="-0.25" y="1" relative="1" as="geometry">
            <mxPoint as="offset" />
          </mxGeometry>
        </mxCell>
        <mxCell id="5A-mQ7iHTfJwWFWPuH88-39" style="edgeStyle=orthogonalEdgeStyle;rounded=0;orthogonalLoop=1;jettySize=auto;html=1;exitX=1;exitY=0.5;exitDx=0;exitDy=0;entryX=0;entryY=0.5;entryDx=0;entryDy=0;" edge="1" parent="1" source="5A-mQ7iHTfJwWFWPuH88-15" target="5A-mQ7iHTfJwWFWPuH88-20">
          <mxGeometry relative="1" as="geometry">
            <Array as="points">
              <mxPoint x="630" y="314" />
              <mxPoint x="630" y="220" />
            </Array>
          </mxGeometry>
        </mxCell>
        <mxCell id="5A-mQ7iHTfJwWFWPuH88-40" style="edgeStyle=orthogonalEdgeStyle;rounded=0;orthogonalLoop=1;jettySize=auto;html=1;exitX=1;exitY=0.5;exitDx=0;exitDy=0;entryX=0;entryY=0.5;entryDx=0;entryDy=0;" edge="1" parent="1" source="5A-mQ7iHTfJwWFWPuH88-17" target="5A-mQ7iHTfJwWFWPuH88-21">
          <mxGeometry relative="1" as="geometry">
            <Array as="points">
              <mxPoint x="650" y="410" />
              <mxPoint x="650" y="314" />
            </Array>
          </mxGeometry>
        </mxCell>
        <mxCell id="5A-mQ7iHTfJwWFWPuH88-42" style="edgeStyle=orthogonalEdgeStyle;rounded=0;orthogonalLoop=1;jettySize=auto;html=1;exitX=1;exitY=0.5;exitDx=0;exitDy=0;entryX=0.5;entryY=0;entryDx=0;entryDy=0;" edge="1" parent="1" source="5A-mQ7iHTfJwWFWPuH88-20" target="5A-mQ7iHTfJwWFWPuH88-36">
          <mxGeometry relative="1" as="geometry" />
        </mxCell>
        <mxCell id="5A-mQ7iHTfJwWFWPuH88-46" style="edgeStyle=orthogonalEdgeStyle;rounded=0;orthogonalLoop=1;jettySize=auto;html=1;exitX=0.5;exitY=1;exitDx=0;exitDy=0;entryX=0.5;entryY=0;entryDx=0;entryDy=0;" edge="1" parent="1" source="5A-mQ7iHTfJwWFWPuH88-23" target="5A-mQ7iHTfJwWFWPuH88-36">
          <mxGeometry relative="1" as="geometry">
            <Array as="points">
              <mxPoint x="1080" y="450" />
            </Array>
          </mxGeometry>
        </mxCell>
        <mxCell id="5A-mQ7iHTfJwWFWPuH88-48" value="N" style="edgeLabel;html=1;align=center;verticalAlign=middle;resizable=0;points=[];" vertex="1" connectable="0" parent="5A-mQ7iHTfJwWFWPuH88-46">
          <mxGeometry x="-0.5648" y="-3" relative="1" as="geometry">
            <mxPoint as="offset" />
          </mxGeometry>
        </mxCell>
        <mxCell id="5A-mQ7iHTfJwWFWPuH88-49" style="edgeStyle=orthogonalEdgeStyle;rounded=0;orthogonalLoop=1;jettySize=auto;html=1;exitX=1;exitY=0.5;exitDx=0;exitDy=0;entryX=0;entryY=0.5;entryDx=0;entryDy=0;" edge="1" parent="1" source="5A-mQ7iHTfJwWFWPuH88-18" target="5A-mQ7iHTfJwWFWPuH88-22">
          <mxGeometry relative="1" as="geometry" />
        </mxCell>
      </root>
    </mxGraphModel>
  </diagram>
</mxfile>
